# xmcd
# 
# Track frame offsets:
#     150
#     15902
#     25530
#     36185
#     55462
#     71477
#     80047
#     93995
#     104555
#     119040
#     134850
#     150412
#     159690
#     170905
#     179547
# 
# Disc length: 2557
# 
# Revision: 6
# Processed by: cddbd v1.5.2PL0 Copyright (c) Steve Scherf et al.
# Submitted via: fre:ac v1.0.31
# 
DISCID=d109fb0f
DTITLE=Various Artist - Classic Country - TL 626-23 - Christmas - CD 2
DYEAR=2000
DGENRE=Country
TTITLE0=Reba McEntire - The Christmas song (chestnuts roasting on an open fire)
TTITLE1=Charley Pride - Little drummer boy
TTITLE2=Slim Whitman - O holy night
TTITLE3=Oak Ridge Boys - There's a new kid in town
TTITLE4=Sonny James - Do you hear what I hear
TTITLE5=Charlie Rich - Santa Claus' daughter
TTITLE6=Tennessee Ernie Ford - It came upon a midnight clear
TTITLE7=Hank Snow - Frosty the snowman
TTITLE8=Red Foley - Peace in the valley
TTITLE9=Larry Gatlin - Sweet baby Jesus
TTITLE10=Louise Mandrell - I've got what you want for Christmas
TTITLE11=Chet Atkins - Away in a manger
TTITLE12=Connie Francis - Baby's first Christmas
TTITLE13=Louvin Brothers - Deck the halls
TTITLE14=Cristy Lane - White Christmas
EXTD=
EXTT0=
EXTT1=
EXTT2=
EXTT3=
EXTT4=
EXTT5=
EXTT6=
EXTT7=
EXTT8=
EXTT9=
EXTT10=
EXTT11=
EXTT12=
EXTT13=
EXTT14=
PLAYORDER=
